<?xml version="1.0" encoding="utf-8" standalone="no"?>
<!DOCTYPE svg PUBLIC "-//W3C//DTD SVG 1.1//EN"
  "http://www.w3.org/Graphics/SVG/1.1/DTD/svg11.dtd">
<svg xmlns:xlink="http://www.w3.org/1999/xlink" width="460.8pt" height="345.6pt" viewBox="0 0 460.8 345.6" xmlns="http://www.w3.org/2000/svg" version="1.1">
 <metadata>
  <rdf:RDF xmlns:dc="http://purl.org/dc/elements/1.1/" xmlns:cc="http://creativecommons.org/ns#" xmlns:rdf="http://www.w3.org/1999/02/22-rdf-syntax-ns#">
   <cc:Work>
    <dc:type rdf:resource="http://purl.org/dc/dcmitype/StillImage"/>
    <dc:date>2023-07-06T12:00:54.989662</dc:date>
    <dc:format>image/svg+xml</dc:format>
    <dc:creator>
     <cc:Agent>
      <dc:title>Matplotlib v3.7.1, https://matplotlib.org/</dc:title>
     </cc:Agent>
    </dc:creator>
   </cc:Work>
  </rdf:RDF>
 </metadata>
 <defs>
  <style type="text/css">*{stroke-linejoin: round; stroke-linecap: butt}</style>
 </defs>
 <g id="figure_1">
  <g id="patch_1">
   <path d="M 0 345.6 
L 460.8 345.6 
L 460.8 0 
L 0 0 
z
" style="fill: #ffffff"/>
  </g>
  <g id="axes_1">
   <g id="patch_2">
    <path d="M 57.6 307.584 
L 414.72 307.584 
L 414.72 41.472 
L 57.6 41.472 
z
" style="fill: #ffffff"/>
   </g>
   <g id="PolyCollection_1"/>
   <g id="PathCollection_1">
    <defs>
     <path id="mdbc1d85b1c" d="M -2.5 5 
L 0 2.5 
L 2.5 5 
L 5 2.5 
L 2.5 0 
L 5 -2.5 
L 2.5 -5 
L 0 -2.5 
L -2.5 -5 
L -5 -2.5 
L -2.5 0 
L -5 2.5 
z
" style="stroke: #ffffff; stroke-width: 0.8"/>
    </defs>
    <g clip-path="url(#pcd10e800be)">
     <use xlink:href="#mdbc1d85b1c" x="252.235969" y="64.393349" style="fill: #8f5652; stroke: #ffffff; stroke-width: 0.8"/>
    </g>
   </g>
   <g id="matplotlib.axis_1">
    <g id="xtick_1">
     <g id="line2d_1">
      <defs>
       <path id="m1082aef85e" d="M 0 0 
L 0 3.5 
" style="stroke: #000000; stroke-width: 0.8"/>
      </defs>
      <g>
       <use xlink:href="#m1082aef85e" x="111.97332" y="307.584" style="stroke: #000000; stroke-width: 0.8"/>
      </g>
     </g>
     <g id="text_1">
      <!-- −1.0 -->
      <g transform="translate(99.831914 322.182437) scale(0.1 -0.1)">
       <defs>
        <path id="DejaVuSans-2212" d="M 678 2272 
L 4684 2272 
L 4684 1741 
L 678 1741 
L 678 2272 
z
" transform="scale(0.015625)"/>
        <path id="DejaVuSans-31" d="M 794 531 
L 1825 531 
L 1825 4091 
L 703 3866 
L 703 4441 
L 1819 4666 
L 2450 4666 
L 2450 531 
L 3481 531 
L 3481 0 
L 794 0 
L 794 531 
z
" transform="scale(0.015625)"/>
        <path id="DejaVuSans-2e" d="M 684 794 
L 1344 794 
L 1344 0 
L 684 0 
L 684 794 
z
" transform="scale(0.015625)"/>
        <path id="DejaVuSans-30" d="M 2034 4250 
Q 1547 4250 1301 3770 
Q 1056 3291 1056 2328 
Q 1056 1369 1301 889 
Q 1547 409 2034 409 
Q 2525 409 2770 889 
Q 3016 1369 3016 2328 
Q 3016 3291 2770 3770 
Q 2525 4250 2034 4250 
z
M 2034 4750 
Q 2819 4750 3233 4129 
Q 3647 3509 3647 2328 
Q 3647 1150 3233 529 
Q 2819 -91 2034 -91 
Q 1250 -91 836 529 
Q 422 1150 422 2328 
Q 422 3509 836 4129 
Q 1250 4750 2034 4750 
z
" transform="scale(0.015625)"/>
       </defs>
       <use xlink:href="#DejaVuSans-2212"/>
       <use xlink:href="#DejaVuSans-31" x="83.789062"/>
       <use xlink:href="#DejaVuSans-2e" x="147.412109"/>
       <use xlink:href="#DejaVuSans-30" x="179.199219"/>
      </g>
     </g>
    </g>
    <g id="xtick_2">
     <g id="line2d_2">
      <g>
       <use xlink:href="#m1082aef85e" x="174.504444" y="307.584" style="stroke: #000000; stroke-width: 0.8"/>
      </g>
     </g>
     <g id="text_2">
      <!-- −0.5 -->
      <g transform="translate(162.363038 322.182437) scale(0.1 -0.1)">
       <defs>
        <path id="DejaVuSans-35" d="M 691 4666 
L 3169 4666 
L 3169 4134 
L 1269 4134 
L 1269 2991 
Q 1406 3038 1543 3061 
Q 1681 3084 1819 3084 
Q 2600 3084 3056 2656 
Q 3513 2228 3513 1497 
Q 3513 744 3044 326 
Q 2575 -91 1722 -91 
Q 1428 -91 1123 -41 
Q 819 9 494 109 
L 494 744 
Q 775 591 1075 516 
Q 1375 441 1709 441 
Q 2250 441 2565 725 
Q 2881 1009 2881 1497 
Q 2881 1984 2565 2268 
Q 2250 2553 1709 2553 
Q 1456 2553 1204 2497 
Q 953 2441 691 2322 
L 691 4666 
z
" transform="scale(0.015625)"/>
       </defs>
       <use xlink:href="#DejaVuSans-2212"/>
       <use xlink:href="#DejaVuSans-30" x="83.789062"/>
       <use xlink:href="#DejaVuSans-2e" x="147.412109"/>
       <use xlink:href="#DejaVuSans-35" x="179.199219"/>
      </g>
     </g>
    </g>
    <g id="xtick_3">
     <g id="line2d_3">
      <g>
       <use xlink:href="#m1082aef85e" x="237.035568" y="307.584" style="stroke: #000000; stroke-width: 0.8"/>
      </g>
     </g>
     <g id="text_3">
      <!-- 0.0 -->
      <g transform="translate(229.084005 322.182437) scale(0.1 -0.1)">
       <use xlink:href="#DejaVuSans-30"/>
       <use xlink:href="#DejaVuSans-2e" x="63.623047"/>
       <use xlink:href="#DejaVuSans-30" x="95.410156"/>
      </g>
     </g>
    </g>
    <g id="xtick_4">
     <g id="line2d_4">
      <g>
       <use xlink:href="#m1082aef85e" x="299.566692" y="307.584" style="stroke: #000000; stroke-width: 0.8"/>
      </g>
     </g>
     <g id="text_4">
      <!-- 0.5 -->
      <g transform="translate(291.615129 322.182437) scale(0.1 -0.1)">
       <use xlink:href="#DejaVuSans-30"/>
       <use xlink:href="#DejaVuSans-2e" x="63.623047"/>
       <use xlink:href="#DejaVuSans-35" x="95.410156"/>
      </g>
     </g>
    </g>
    <g id="xtick_5">
     <g id="line2d_5">
      <g>
       <use xlink:href="#m1082aef85e" x="362.097816" y="307.584" style="stroke: #000000; stroke-width: 0.8"/>
      </g>
     </g>
     <g id="text_5">
      <!-- 1.0 -->
      <g transform="translate(354.146253 322.182437) scale(0.1 -0.1)">
       <use xlink:href="#DejaVuSans-31"/>
       <use xlink:href="#DejaVuSans-2e" x="63.623047"/>
       <use xlink:href="#DejaVuSans-30" x="95.410156"/>
      </g>
     </g>
    </g>
    <g id="text_6">
     <!-- Volage / V -->
     <g transform="translate(211.081094 335.860562) scale(0.1 -0.1)">
      <defs>
       <path id="DejaVuSans-56" d="M 1831 0 
L 50 4666 
L 709 4666 
L 2188 738 
L 3669 4666 
L 4325 4666 
L 2547 0 
L 1831 0 
z
" transform="scale(0.015625)"/>
       <path id="DejaVuSans-6f" d="M 1959 3097 
Q 1497 3097 1228 2736 
Q 959 2375 959 1747 
Q 959 1119 1226 758 
Q 1494 397 1959 397 
Q 2419 397 2687 759 
Q 2956 1122 2956 1747 
Q 2956 2369 2687 2733 
Q 2419 3097 1959 3097 
z
M 1959 3584 
Q 2709 3584 3137 3096 
Q 3566 2609 3566 1747 
Q 3566 888 3137 398 
Q 2709 -91 1959 -91 
Q 1206 -91 779 398 
Q 353 888 353 1747 
Q 353 2609 779 3096 
Q 1206 3584 1959 3584 
z
" transform="scale(0.015625)"/>
       <path id="DejaVuSans-6c" d="M 603 4863 
L 1178 4863 
L 1178 0 
L 603 0 
L 603 4863 
z
" transform="scale(0.015625)"/>
       <path id="DejaVuSans-61" d="M 2194 1759 
Q 1497 1759 1228 1600 
Q 959 1441 959 1056 
Q 959 750 1161 570 
Q 1363 391 1709 391 
Q 2188 391 2477 730 
Q 2766 1069 2766 1631 
L 2766 1759 
L 2194 1759 
z
M 3341 1997 
L 3341 0 
L 2766 0 
L 2766 531 
Q 2569 213 2275 61 
Q 1981 -91 1556 -91 
Q 1019 -91 701 211 
Q 384 513 384 1019 
Q 384 1609 779 1909 
Q 1175 2209 1959 2209 
L 2766 2209 
L 2766 2266 
Q 2766 2663 2505 2880 
Q 2244 3097 1772 3097 
Q 1472 3097 1187 3025 
Q 903 2953 641 2809 
L 641 3341 
Q 956 3463 1253 3523 
Q 1550 3584 1831 3584 
Q 2591 3584 2966 3190 
Q 3341 2797 3341 1997 
z
" transform="scale(0.015625)"/>
       <path id="DejaVuSans-67" d="M 2906 1791 
Q 2906 2416 2648 2759 
Q 2391 3103 1925 3103 
Q 1463 3103 1205 2759 
Q 947 2416 947 1791 
Q 947 1169 1205 825 
Q 1463 481 1925 481 
Q 2391 481 2648 825 
Q 2906 1169 2906 1791 
z
M 3481 434 
Q 3481 -459 3084 -895 
Q 2688 -1331 1869 -1331 
Q 1566 -1331 1297 -1286 
Q 1028 -1241 775 -1147 
L 775 -588 
Q 1028 -725 1275 -790 
Q 1522 -856 1778 -856 
Q 2344 -856 2625 -561 
Q 2906 -266 2906 331 
L 2906 616 
Q 2728 306 2450 153 
Q 2172 0 1784 0 
Q 1141 0 747 490 
Q 353 981 353 1791 
Q 353 2603 747 3093 
Q 1141 3584 1784 3584 
Q 2172 3584 2450 3431 
Q 2728 3278 2906 2969 
L 2906 3500 
L 3481 3500 
L 3481 434 
z
" transform="scale(0.015625)"/>
       <path id="DejaVuSans-65" d="M 3597 1894 
L 3597 1613 
L 953 1613 
Q 991 1019 1311 708 
Q 1631 397 2203 397 
Q 2534 397 2845 478 
Q 3156 559 3463 722 
L 3463 178 
Q 3153 47 2828 -22 
Q 2503 -91 2169 -91 
Q 1331 -91 842 396 
Q 353 884 353 1716 
Q 353 2575 817 3079 
Q 1281 3584 2069 3584 
Q 2775 3584 3186 3129 
Q 3597 2675 3597 1894 
z
M 3022 2063 
Q 3016 2534 2758 2815 
Q 2500 3097 2075 3097 
Q 1594 3097 1305 2825 
Q 1016 2553 972 2059 
L 3022 2063 
z
" transform="scale(0.015625)"/>
       <path id="DejaVuSans-20" transform="scale(0.015625)"/>
       <path id="DejaVuSans-2f" d="M 1625 4666 
L 2156 4666 
L 531 -594 
L 0 -594 
L 1625 4666 
z
" transform="scale(0.015625)"/>
      </defs>
      <use xlink:href="#DejaVuSans-56"/>
      <use xlink:href="#DejaVuSans-6f" x="60.658203"/>
      <use xlink:href="#DejaVuSans-6c" x="121.839844"/>
      <use xlink:href="#DejaVuSans-61" x="149.623047"/>
      <use xlink:href="#DejaVuSans-67" x="210.902344"/>
      <use xlink:href="#DejaVuSans-65" x="274.378906"/>
      <use xlink:href="#DejaVuSans-20" x="335.902344"/>
      <use xlink:href="#DejaVuSans-2f" x="367.689453"/>
      <use xlink:href="#DejaVuSans-20" x="401.380859"/>
      <use xlink:href="#DejaVuSans-56" x="433.167969"/>
     </g>
    </g>
   </g>
   <g id="matplotlib.axis_2">
    <g id="ytick_1">
     <g id="line2d_6">
      <defs>
       <path id="m5fa82b2a8e" d="M 0 0 
L -3.5 0 
" style="stroke: #000000; stroke-width: 0.8"/>
      </defs>
      <g>
       <use xlink:href="#m5fa82b2a8e" x="57.6" y="261.170447" style="stroke: #000000; stroke-width: 0.8"/>
      </g>
     </g>
     <g id="text_7">
      <!-- −2 -->
      <g transform="translate(35.857813 264.969666) scale(0.1 -0.1)">
       <defs>
        <path id="DejaVuSans-32" d="M 1228 531 
L 3431 531 
L 3431 0 
L 469 0 
L 469 531 
Q 828 903 1448 1529 
Q 2069 2156 2228 2338 
Q 2531 2678 2651 2914 
Q 2772 3150 2772 3378 
Q 2772 3750 2511 3984 
Q 2250 4219 1831 4219 
Q 1534 4219 1204 4116 
Q 875 4013 500 3803 
L 500 4441 
Q 881 4594 1212 4672 
Q 1544 4750 1819 4750 
Q 2544 4750 2975 4387 
Q 3406 4025 3406 3419 
Q 3406 3131 3298 2873 
Q 3191 2616 2906 2266 
Q 2828 2175 2409 1742 
Q 1991 1309 1228 531 
z
" transform="scale(0.015625)"/>
       </defs>
       <use xlink:href="#DejaVuSans-2212"/>
       <use xlink:href="#DejaVuSans-32" x="83.789062"/>
      </g>
     </g>
    </g>
    <g id="ytick_2">
     <g id="line2d_7">
      <g>
       <use xlink:href="#m5fa82b2a8e" x="57.6" y="207.574968" style="stroke: #000000; stroke-width: 0.8"/>
      </g>
     </g>
     <g id="text_8">
      <!-- 0 -->
      <g transform="translate(44.2375 211.374187) scale(0.1 -0.1)">
       <use xlink:href="#DejaVuSans-30"/>
      </g>
     </g>
    </g>
    <g id="ytick_3">
     <g id="line2d_8">
      <g>
       <use xlink:href="#m5fa82b2a8e" x="57.6" y="153.979489" style="stroke: #000000; stroke-width: 0.8"/>
      </g>
     </g>
     <g id="text_9">
      <!-- 2 -->
      <g transform="translate(44.2375 157.778708) scale(0.1 -0.1)">
       <use xlink:href="#DejaVuSans-32"/>
      </g>
     </g>
    </g>
    <g id="ytick_4">
     <g id="line2d_9">
      <g>
       <use xlink:href="#m5fa82b2a8e" x="57.6" y="100.38401" style="stroke: #000000; stroke-width: 0.8"/>
      </g>
     </g>
     <g id="text_10">
      <!-- 4 -->
      <g transform="translate(44.2375 104.183229) scale(0.1 -0.1)">
       <defs>
        <path id="DejaVuSans-34" d="M 2419 4116 
L 825 1625 
L 2419 1625 
L 2419 4116 
z
M 2253 4666 
L 3047 4666 
L 3047 1625 
L 3713 1625 
L 3713 1100 
L 3047 1100 
L 3047 0 
L 2419 0 
L 2419 1100 
L 313 1100 
L 313 1709 
L 2253 4666 
z
" transform="scale(0.015625)"/>
       </defs>
       <use xlink:href="#DejaVuSans-34"/>
      </g>
     </g>
    </g>
    <g id="ytick_5">
     <g id="line2d_10">
      <g>
       <use xlink:href="#m5fa82b2a8e" x="57.6" y="46.788531" style="stroke: #000000; stroke-width: 0.8"/>
      </g>
     </g>
     <g id="text_11">
      <!-- 6 -->
      <g transform="translate(44.2375 50.58775) scale(0.1 -0.1)">
       <defs>
        <path id="DejaVuSans-36" d="M 2113 2584 
Q 1688 2584 1439 2293 
Q 1191 2003 1191 1497 
Q 1191 994 1439 701 
Q 1688 409 2113 409 
Q 2538 409 2786 701 
Q 3034 994 3034 1497 
Q 3034 2003 2786 2293 
Q 2538 2584 2113 2584 
z
M 3366 4563 
L 3366 3988 
Q 3128 4100 2886 4159 
Q 2644 4219 2406 4219 
Q 1781 4219 1451 3797 
Q 1122 3375 1075 2522 
Q 1259 2794 1537 2939 
Q 1816 3084 2150 3084 
Q 2853 3084 3261 2657 
Q 3669 2231 3669 1497 
Q 3669 778 3244 343 
Q 2819 -91 2113 -91 
Q 1303 -91 875 529 
Q 447 1150 447 2328 
Q 447 3434 972 4092 
Q 1497 4750 2381 4750 
Q 2619 4750 2861 4703 
Q 3103 4656 3366 4563 
z
" transform="scale(0.015625)"/>
       </defs>
       <use xlink:href="#DejaVuSans-36"/>
      </g>
     </g>
    </g>
    <g id="text_12">
     <!-- Current / μA -->
     <g transform="translate(29.778125 204.768625) rotate(-90) scale(0.1 -0.1)">
      <defs>
       <path id="DejaVuSans-43" d="M 4122 4306 
L 4122 3641 
Q 3803 3938 3442 4084 
Q 3081 4231 2675 4231 
Q 1875 4231 1450 3742 
Q 1025 3253 1025 2328 
Q 1025 1406 1450 917 
Q 1875 428 2675 428 
Q 3081 428 3442 575 
Q 3803 722 4122 1019 
L 4122 359 
Q 3791 134 3420 21 
Q 3050 -91 2638 -91 
Q 1578 -91 968 557 
Q 359 1206 359 2328 
Q 359 3453 968 4101 
Q 1578 4750 2638 4750 
Q 3056 4750 3426 4639 
Q 3797 4528 4122 4306 
z
" transform="scale(0.015625)"/>
       <path id="DejaVuSans-75" d="M 544 1381 
L 544 3500 
L 1119 3500 
L 1119 1403 
Q 1119 906 1312 657 
Q 1506 409 1894 409 
Q 2359 409 2629 706 
Q 2900 1003 2900 1516 
L 2900 3500 
L 3475 3500 
L 3475 0 
L 2900 0 
L 2900 538 
Q 2691 219 2414 64 
Q 2138 -91 1772 -91 
Q 1169 -91 856 284 
Q 544 659 544 1381 
z
M 1991 3584 
L 1991 3584 
z
" transform="scale(0.015625)"/>
       <path id="DejaVuSans-72" d="M 2631 2963 
Q 2534 3019 2420 3045 
Q 2306 3072 2169 3072 
Q 1681 3072 1420 2755 
Q 1159 2438 1159 1844 
L 1159 0 
L 581 0 
L 581 3500 
L 1159 3500 
L 1159 2956 
Q 1341 3275 1631 3429 
Q 1922 3584 2338 3584 
Q 2397 3584 2469 3576 
Q 2541 3569 2628 3553 
L 2631 2963 
z
" transform="scale(0.015625)"/>
       <path id="DejaVuSans-6e" d="M 3513 2113 
L 3513 0 
L 2938 0 
L 2938 2094 
Q 2938 2591 2744 2837 
Q 2550 3084 2163 3084 
Q 1697 3084 1428 2787 
Q 1159 2491 1159 1978 
L 1159 0 
L 581 0 
L 581 3500 
L 1159 3500 
L 1159 2956 
Q 1366 3272 1645 3428 
Q 1925 3584 2291 3584 
Q 2894 3584 3203 3211 
Q 3513 2838 3513 2113 
z
" transform="scale(0.015625)"/>
       <path id="DejaVuSans-74" d="M 1172 4494 
L 1172 3500 
L 2356 3500 
L 2356 3053 
L 1172 3053 
L 1172 1153 
Q 1172 725 1289 603 
Q 1406 481 1766 481 
L 2356 481 
L 2356 0 
L 1766 0 
Q 1100 0 847 248 
Q 594 497 594 1153 
L 594 3053 
L 172 3053 
L 172 3500 
L 594 3500 
L 594 4494 
L 1172 4494 
z
" transform="scale(0.015625)"/>
       <path id="DejaVuSans-3bc" d="M 544 -1331 
L 544 3500 
L 1119 3500 
L 1119 1325 
Q 1119 872 1334 640 
Q 1550 409 1972 409 
Q 2434 409 2667 671 
Q 2900 934 2900 1459 
L 2900 3500 
L 3475 3500 
L 3475 806 
Q 3475 619 3529 530 
Q 3584 441 3700 441 
Q 3728 441 3778 458 
Q 3828 475 3916 513 
L 3916 50 
Q 3788 -22 3673 -56 
Q 3559 -91 3450 -91 
Q 3234 -91 3106 31 
Q 2978 153 2931 403 
Q 2775 156 2548 32 
Q 2322 -91 2016 -91 
Q 1697 -91 1473 31 
Q 1250 153 1119 397 
L 1119 -1331 
L 544 -1331 
z
" transform="scale(0.015625)"/>
       <path id="DejaVuSans-41" d="M 2188 4044 
L 1331 1722 
L 3047 1722 
L 2188 4044 
z
M 1831 4666 
L 2547 4666 
L 4325 0 
L 3669 0 
L 3244 1197 
L 1141 1197 
L 716 0 
L 50 0 
L 1831 4666 
z
" transform="scale(0.015625)"/>
      </defs>
      <use xlink:href="#DejaVuSans-43"/>
      <use xlink:href="#DejaVuSans-75" x="69.824219"/>
      <use xlink:href="#DejaVuSans-72" x="133.203125"/>
      <use xlink:href="#DejaVuSans-72" x="172.566406"/>
      <use xlink:href="#DejaVuSans-65" x="211.429688"/>
      <use xlink:href="#DejaVuSans-6e" x="272.953125"/>
      <use xlink:href="#DejaVuSans-74" x="336.332031"/>
      <use xlink:href="#DejaVuSans-20" x="375.541016"/>
      <use xlink:href="#DejaVuSans-2f" x="407.328125"/>
      <use xlink:href="#DejaVuSans-20" x="441.019531"/>
      <use xlink:href="#DejaVuSans-3bc" x="472.806641"/>
      <use xlink:href="#DejaVuSans-41" x="536.429688"/>
     </g>
    </g>
   </g>
   <g id="line2d_11">
    <path d="M 73.832727 295.488 
L 73.847192 289.87039 
L 74.602878 282.196777 
L 75.686077 274.742331 
L 76.927006 267.897635 
L 78.202227 261.929925 
L 79.510804 256.433969 
L 80.812345 251.595938 
L 83.480567 243.493055 
L 85.926412 237.702873 
L 87.199074 234.304033 
L 88.481478 231.433979 
L 89.783364 228.95208 
L 91.101633 226.686925 
L 92.415621 224.69312 
L 95.068985 221.127506 
L 96.41387 219.527339 
L 99.096507 216.758699 
L 104.425964 212.269924 
L 105.7647 211.262954 
L 106.973355 211.249038 
L 108.168874 210.378165 
L 109.411378 209.141275 
L 112.015297 207.065348 
L 113.345177 206.081359 
L 117.326895 203.909079 
L 121.332869 201.807746 
L 122.666979 200.975773 
L 125.330872 199.615647 
L 126.651502 199.12924 
L 127.874129 199.330697 
L 129.031569 198.836173 
L 132.909282 196.348371 
L 135.532389 195.142052 
L 139.521094 193.188623 
L 143.526772 191.431907 
L 148.844077 188.939678 
L 150.059226 189.218513 
L 151.250317 188.761624 
L 153.797511 187.398124 
L 156.415403 186.459255 
L 157.751383 186.145104 
L 159.072112 185.237861 
L 160.413947 184.492543 
L 163.087286 183.626414 
L 167.058131 182.034364 
L 169.707411 180.999353 
L 170.945143 181.229273 
L 172.142728 180.858934 
L 173.412291 180.076508 
L 176.046025 178.805883 
L 180.018199 177.457247 
L 186.667253 174.924747 
L 190.666092 172.88129 
L 191.874305 172.958141 
L 193.068742 172.312339 
L 198.268069 167.825251 
L 200.909429 164.767233 
L 202.238275 162.738324 
L 203.57706 160.236817 
L 204.930112 157.206314 
L 206.260877 153.810004 
L 207.604484 149.76336 
L 208.902729 145.455801 
L 211.575477 135.264658 
L 215.27765 119.737586 
L 219.173222 101.851008 
L 220.504185 96.27546 
L 221.814434 91.540635 
L 223.154498 87.559245 
L 224.486641 84.791343 
L 225.805451 83.320631 
L 227.152599 83.232184 
L 228.4904 84.443984 
L 229.796862 86.842285 
L 231.133531 90.214875 
L 235.02807 101.549718 
L 236.278543 103.151045 
L 237.626627 101.532745 
L 238.938008 98.370362 
L 240.274824 93.829088 
L 242.915101 83.945981 
L 244.247736 79.682594 
L 245.575402 75.984151 
L 248.257153 69.986186 
L 249.593183 67.366609 
L 250.921095 65.432893 
L 252.235969 64.393349 
L 253.567325 64.470621 
L 254.884561 65.602514 
L 256.237268 67.785863 
L 259.908496 80.407671 
L 262.522305 87.956045 
L 265.17498 94.853768 
L 266.486508 97.890491 
L 267.832132 100.620548 
L 270.506798 105.291278 
L 273.164688 109.350889 
L 275.799554 112.931683 
L 277.134894 114.563582 
L 278.379366 116.833481 
L 279.629594 118.52315 
L 283.538794 122.443185 
L 284.865869 124.081514 
L 286.175824 125.342651 
L 288.840405 127.396545 
L 292.852921 129.934949 
L 295.508646 131.37414 
L 298.14361 132.511093 
L 299.382866 133.686734 
L 300.586995 134.354042 
L 303.161396 134.846247 
L 307.110004 135.264342 
L 311.115091 135.565948 
L 320.451358 135.733881 
L 321.728104 136.556367 
L 322.911569 136.773637 
L 337.403967 135.441763 
L 341.402512 134.628238 
L 342.628042 135.037689 
L 343.828333 135.074375 
L 345.090664 134.746098 
L 347.701028 133.761793 
L 350.364773 132.854445 
L 354.35087 131.257229 
L 359.652432 128.938099 
L 363.672967 126.64933 
L 364.89771 126.590716 
L 366.11409 126.173149 
L 368.673632 124.507727 
L 372.62839 121.458353 
L 376.640611 117.823373 
L 377.975214 116.296473 
L 380.628578 112.718525 
L 381.940107 110.524106 
L 383.262459 107.924137 
L 384.59534 104.942127 
L 385.828742 102.471298 
L 387.020424 99.509845 
L 388.282262 95.671826 
L 390.889084 86.68658 
L 393.530444 75.919107 
L 396.229562 63.445519 
L 397.569429 56.666393 
L 398.487273 53.568 
L 398.46169 58.246531 
L 397.673631 68.082199 
L 396.592449 79.360536 
L 394.062966 102.001231 
L 392.753701 112.360097 
L 390.110865 130.501686 
L 388.812423 138.197437 
L 386.383404 150.571086 
L 385.100508 156.265231 
L 383.802853 161.372821 
L 382.474597 165.927589 
L 381.155246 169.957366 
L 379.812771 173.50042 
L 378.501636 176.595546 
L 377.17156 179.289022 
L 375.829971 181.692066 
L 373.160667 185.869326 
L 370.502383 189.073877 
L 367.838983 191.851689 
L 366.637757 192.360023 
L 365.442336 193.408634 
L 364.179759 194.677467 
L 361.549912 196.789025 
L 360.219245 197.790514 
L 356.22567 200.19788 
L 353.543378 201.553157 
L 350.889571 202.536619 
L 349.565694 203.063507 
L 345.570298 204.128352 
L 344.362086 203.734398 
L 343.184032 203.982767 
L 341.888739 204.571537 
L 333.960085 206.7318 
L 324.634052 208.76092 
L 323.440156 208.358533 
L 322.25551 208.169093 
L 319.669006 208.908297 
L 314.379941 210.525542 
L 311.696861 211.106089 
L 302.399904 212.736933 
L 301.162517 212.329275 
L 299.983578 212.442917 
L 296.062226 213.532009 
L 290.760369 214.6094 
L 286.745884 215.383076 
L 282.758361 216.09719 
L 281.422872 216.377185 
L 280.19749 215.908172 
L 278.972993 216.01317 
L 272.4245 217.81121 
L 264.389578 219.852559 
L 260.408204 221.027674 
L 259.194186 220.73039 
L 258.00398 221.011228 
L 254.077954 223.265631 
L 251.436792 225.090131 
L 250.127378 226.220969 
L 248.795088 227.637179 
L 247.47003 229.212151 
L 246.112992 231.168532 
L 244.782866 233.35167 
L 242.119811 238.350994 
L 238.082597 247.002481 
L 236.825875 248.326448 
L 235.619925 249.900893 
L 233.063089 254.604408 
L 231.753823 256.512717 
L 230.41804 257.950644 
L 229.098245 258.696489 
L 227.736731 258.844393 
L 226.406064 258.426719 
L 225.053947 257.80527 
L 222.390694 255.953676 
L 219.734477 254.090908 
L 217.076488 252.321648 
L 215.868178 250.743935 
L 214.707934 249.661484 
L 212.160641 248.688565 
L 206.88604 247.556673 
L 204.193466 247.139948 
L 202.832492 247.341195 
L 201.503252 247.782376 
L 200.180506 250.450341 
L 197.533145 258.423768 
L 194.894688 266.958977 
L 193.685246 269.292866 
L 192.504289 270.350226 
L 191.220115 270.164793 
L 189.923099 267.962257 
L 188.592875 267.512958 
L 187.269096 270.202217 
L 185.939216 276.094551 
L 184.607221 279.83084 
L 183.258055 281.55614 
L 181.927684 282.417315 
L 180.586833 282.698469 
L 179.269597 282.482991 
L 176.609099 281.738095 
L 173.959819 280.354144 
L 172.722973 278.824924 
L 171.534293 276.992201 
L 170.255087 276.652011 
L 168.952857 276.04532 
L 167.61973 274.787451 
L 166.290834 274.603494 
L 163.598997 272.133402 
L 162.281811 271.413596 
L 160.936237 270.945848 
L 158.283857 270.658685 
L 156.954813 270.718879 
L 154.311093 270.416114 
L 153.009797 270.244701 
L 151.834843 269.253966 
L 150.697033 268.910719 
L 149.437458 269.781381 
L 148.129078 270.123047 
L 146.82114 269.9782 
L 145.498148 269.655615 
L 144.194639 269.548298 
L 142.847589 269.560421 
L 141.499653 271.009311 
L 140.146749 270.573505 
L 138.831235 270.436881 
L 137.500322 270.584891 
L 136.175313 270.572662 
L 134.827525 270.789089 
L 133.522982 270.813863 
L 130.852645 271.166703 
L 129.668343 270.47673 
L 128.479613 270.301417 
L 127.217578 270.598279 
L 125.906787 271.233644 
L 123.257212 272.087545 
L 119.269196 273.131411 
L 116.5902 273.901081 
L 115.262829 274.555106 
L 113.922716 275.055534 
L 111.263104 275.11109 
L 109.966827 275.123213 
L 108.762993 274.545091 
L 107.585923 274.370305 
L 106.309965 274.674968 
L 102.368638 276.028875 
L 101.025032 276.453506 
L 99.691659 276.993677 
L 98.340083 277.979668 
L 89.028415 282.818964 
L 87.737009 283.641239 
L 86.502574 283.626164 
L 85.319699 284.085056 
L 84.036114 285.010115 
L 81.411679 287.396608 
L 78.775092 290.266135 
L 77.442851 291.841529 
L 74.758443 295.454582 
L 74.758443 295.454582 
" clip-path="url(#pcd10e800be)" style="fill: none; stroke: #477a7b; stroke-width: 1.5; stroke-linecap: square"/>
   </g>
   <g id="patch_3">
    <path d="M 57.6 307.584 
L 57.6 41.472 
" style="fill: none; stroke: #000000; stroke-width: 0.8; stroke-linejoin: miter; stroke-linecap: square"/>
   </g>
   <g id="patch_4">
    <path d="M 414.72 307.584 
L 414.72 41.472 
" style="fill: none; stroke: #000000; stroke-width: 0.8; stroke-linejoin: miter; stroke-linecap: square"/>
   </g>
   <g id="patch_5">
    <path d="M 57.6 307.584 
L 414.72 307.584 
" style="fill: none; stroke: #000000; stroke-width: 0.8; stroke-linejoin: miter; stroke-linecap: square"/>
   </g>
   <g id="patch_6">
    <path d="M 57.6 41.472 
L 414.72 41.472 
" style="fill: none; stroke: #000000; stroke-width: 0.8; stroke-linejoin: miter; stroke-linecap: square"/>
   </g>
  </g>
 </g>
 <defs>
  <clipPath id="pcd10e800be">
   <rect x="57.6" y="41.472" width="357.12" height="266.112"/>
  </clipPath>
 </defs>
</svg>
