<?xml version="1.0" encoding="utf-8" standalone="no"?>
<!DOCTYPE svg PUBLIC "-//W3C//DTD SVG 1.1//EN"
  "http://www.w3.org/Graphics/SVG/1.1/DTD/svg11.dtd">
<svg xmlns:xlink="http://www.w3.org/1999/xlink" width="460.8pt" height="345.6pt" viewBox="0 0 460.8 345.6" xmlns="http://www.w3.org/2000/svg" version="1.1">
 <metadata>
  <rdf:RDF xmlns:dc="http://purl.org/dc/elements/1.1/" xmlns:cc="http://creativecommons.org/ns#" xmlns:rdf="http://www.w3.org/1999/02/22-rdf-syntax-ns#">
   <cc:Work>
    <dc:type rdf:resource="http://purl.org/dc/dcmitype/StillImage"/>
    <dc:date>2023-07-06T12:01:01.965105</dc:date>
    <dc:format>image/svg+xml</dc:format>
    <dc:creator>
     <cc:Agent>
      <dc:title>Matplotlib v3.7.1, https://matplotlib.org/</dc:title>
     </cc:Agent>
    </dc:creator>
   </cc:Work>
  </rdf:RDF>
 </metadata>
 <defs>
  <style type="text/css">*{stroke-linejoin: round; stroke-linecap: butt}</style>
 </defs>
 <g id="figure_1">
  <g id="patch_1">
   <path d="M 0 345.6 
L 460.8 345.6 
L 460.8 0 
L 0 0 
z
" style="fill: #ffffff"/>
  </g>
  <g id="axes_1">
   <g id="patch_2">
    <path d="M 57.6 307.584 
L 414.72 307.584 
L 414.72 41.472 
L 57.6 41.472 
z
" style="fill: #ffffff"/>
   </g>
   <g id="PolyCollection_1"/>
   <g id="PathCollection_1">
    <defs>
     <path id="m0e4af01f1c" d="M -2.5 5 
L 0 2.5 
L 2.5 5 
L 5 2.5 
L 2.5 0 
L 5 -2.5 
L 2.5 -5 
L 0 -2.5 
L -2.5 -5 
L -5 -2.5 
L -2.5 0 
L -5 2.5 
z
" style="stroke: #ffffff; stroke-width: 0.8"/>
    </defs>
    <g clip-path="url(#p754e36043f)">
     <use xlink:href="#m0e4af01f1c" x="245.577438" y="138.949356" style="fill: #8f5652; stroke: #ffffff; stroke-width: 0.8"/>
    </g>
   </g>
   <g id="matplotlib.axis_1">
    <g id="xtick_1">
     <g id="line2d_1">
      <defs>
       <path id="ma89ff805ea" d="M 0 0 
L 0 3.5 
" style="stroke: #000000; stroke-width: 0.8"/>
      </defs>
      <g>
       <use xlink:href="#ma89ff805ea" x="111.954784" y="307.584" style="stroke: #000000; stroke-width: 0.8"/>
      </g>
     </g>
     <g id="text_1">
      <!-- −1.0 -->
      <g transform="translate(99.813378 322.182437) scale(0.1 -0.1)">
       <defs>
        <path id="DejaVuSans-2212" d="M 678 2272 
L 4684 2272 
L 4684 1741 
L 678 1741 
L 678 2272 
z
" transform="scale(0.015625)"/>
        <path id="DejaVuSans-31" d="M 794 531 
L 1825 531 
L 1825 4091 
L 703 3866 
L 703 4441 
L 1819 4666 
L 2450 4666 
L 2450 531 
L 3481 531 
L 3481 0 
L 794 0 
L 794 531 
z
" transform="scale(0.015625)"/>
        <path id="DejaVuSans-2e" d="M 684 794 
L 1344 794 
L 1344 0 
L 684 0 
L 684 794 
z
" transform="scale(0.015625)"/>
        <path id="DejaVuSans-30" d="M 2034 4250 
Q 1547 4250 1301 3770 
Q 1056 3291 1056 2328 
Q 1056 1369 1301 889 
Q 1547 409 2034 409 
Q 2525 409 2770 889 
Q 3016 1369 3016 2328 
Q 3016 3291 2770 3770 
Q 2525 4250 2034 4250 
z
M 2034 4750 
Q 2819 4750 3233 4129 
Q 3647 3509 3647 2328 
Q 3647 1150 3233 529 
Q 2819 -91 2034 -91 
Q 1250 -91 836 529 
Q 422 1150 422 2328 
Q 422 3509 836 4129 
Q 1250 4750 2034 4750 
z
" transform="scale(0.015625)"/>
       </defs>
       <use xlink:href="#DejaVuSans-2212"/>
       <use xlink:href="#DejaVuSans-31" x="83.789062"/>
       <use xlink:href="#DejaVuSans-2e" x="147.412109"/>
       <use xlink:href="#DejaVuSans-30" x="179.199219"/>
      </g>
     </g>
    </g>
    <g id="xtick_2">
     <g id="line2d_2">
      <g>
       <use xlink:href="#ma89ff805ea" x="174.490769" y="307.584" style="stroke: #000000; stroke-width: 0.8"/>
      </g>
     </g>
     <g id="text_2">
      <!-- −0.5 -->
      <g transform="translate(162.349363 322.182437) scale(0.1 -0.1)">
       <defs>
        <path id="DejaVuSans-35" d="M 691 4666 
L 3169 4666 
L 3169 4134 
L 1269 4134 
L 1269 2991 
Q 1406 3038 1543 3061 
Q 1681 3084 1819 3084 
Q 2600 3084 3056 2656 
Q 3513 2228 3513 1497 
Q 3513 744 3044 326 
Q 2575 -91 1722 -91 
Q 1428 -91 1123 -41 
Q 819 9 494 109 
L 494 744 
Q 775 591 1075 516 
Q 1375 441 1709 441 
Q 2250 441 2565 725 
Q 2881 1009 2881 1497 
Q 2881 1984 2565 2268 
Q 2250 2553 1709 2553 
Q 1456 2553 1204 2497 
Q 953 2441 691 2322 
L 691 4666 
z
" transform="scale(0.015625)"/>
       </defs>
       <use xlink:href="#DejaVuSans-2212"/>
       <use xlink:href="#DejaVuSans-30" x="83.789062"/>
       <use xlink:href="#DejaVuSans-2e" x="147.412109"/>
       <use xlink:href="#DejaVuSans-35" x="179.199219"/>
      </g>
     </g>
    </g>
    <g id="xtick_3">
     <g id="line2d_3">
      <g>
       <use xlink:href="#ma89ff805ea" x="237.026755" y="307.584" style="stroke: #000000; stroke-width: 0.8"/>
      </g>
     </g>
     <g id="text_3">
      <!-- 0.0 -->
      <g transform="translate(229.075192 322.182437) scale(0.1 -0.1)">
       <use xlink:href="#DejaVuSans-30"/>
       <use xlink:href="#DejaVuSans-2e" x="63.623047"/>
       <use xlink:href="#DejaVuSans-30" x="95.410156"/>
      </g>
     </g>
    </g>
    <g id="xtick_4">
     <g id="line2d_4">
      <g>
       <use xlink:href="#ma89ff805ea" x="299.56274" y="307.584" style="stroke: #000000; stroke-width: 0.8"/>
      </g>
     </g>
     <g id="text_4">
      <!-- 0.5 -->
      <g transform="translate(291.611178 322.182437) scale(0.1 -0.1)">
       <use xlink:href="#DejaVuSans-30"/>
       <use xlink:href="#DejaVuSans-2e" x="63.623047"/>
       <use xlink:href="#DejaVuSans-35" x="95.410156"/>
      </g>
     </g>
    </g>
    <g id="xtick_5">
     <g id="line2d_5">
      <g>
       <use xlink:href="#ma89ff805ea" x="362.098726" y="307.584" style="stroke: #000000; stroke-width: 0.8"/>
      </g>
     </g>
     <g id="text_5">
      <!-- 1.0 -->
      <g transform="translate(354.147163 322.182437) scale(0.1 -0.1)">
       <use xlink:href="#DejaVuSans-31"/>
       <use xlink:href="#DejaVuSans-2e" x="63.623047"/>
       <use xlink:href="#DejaVuSans-30" x="95.410156"/>
      </g>
     </g>
    </g>
    <g id="text_6">
     <!-- Volage / V -->
     <g transform="translate(211.081094 335.860562) scale(0.1 -0.1)">
      <defs>
       <path id="DejaVuSans-56" d="M 1831 0 
L 50 4666 
L 709 4666 
L 2188 738 
L 3669 4666 
L 4325 4666 
L 2547 0 
L 1831 0 
z
" transform="scale(0.015625)"/>
       <path id="DejaVuSans-6f" d="M 1959 3097 
Q 1497 3097 1228 2736 
Q 959 2375 959 1747 
Q 959 1119 1226 758 
Q 1494 397 1959 397 
Q 2419 397 2687 759 
Q 2956 1122 2956 1747 
Q 2956 2369 2687 2733 
Q 2419 3097 1959 3097 
z
M 1959 3584 
Q 2709 3584 3137 3096 
Q 3566 2609 3566 1747 
Q 3566 888 3137 398 
Q 2709 -91 1959 -91 
Q 1206 -91 779 398 
Q 353 888 353 1747 
Q 353 2609 779 3096 
Q 1206 3584 1959 3584 
z
" transform="scale(0.015625)"/>
       <path id="DejaVuSans-6c" d="M 603 4863 
L 1178 4863 
L 1178 0 
L 603 0 
L 603 4863 
z
" transform="scale(0.015625)"/>
       <path id="DejaVuSans-61" d="M 2194 1759 
Q 1497 1759 1228 1600 
Q 959 1441 959 1056 
Q 959 750 1161 570 
Q 1363 391 1709 391 
Q 2188 391 2477 730 
Q 2766 1069 2766 1631 
L 2766 1759 
L 2194 1759 
z
M 3341 1997 
L 3341 0 
L 2766 0 
L 2766 531 
Q 2569 213 2275 61 
Q 1981 -91 1556 -91 
Q 1019 -91 701 211 
Q 384 513 384 1019 
Q 384 1609 779 1909 
Q 1175 2209 1959 2209 
L 2766 2209 
L 2766 2266 
Q 2766 2663 2505 2880 
Q 2244 3097 1772 3097 
Q 1472 3097 1187 3025 
Q 903 2953 641 2809 
L 641 3341 
Q 956 3463 1253 3523 
Q 1550 3584 1831 3584 
Q 2591 3584 2966 3190 
Q 3341 2797 3341 1997 
z
" transform="scale(0.015625)"/>
       <path id="DejaVuSans-67" d="M 2906 1791 
Q 2906 2416 2648 2759 
Q 2391 3103 1925 3103 
Q 1463 3103 1205 2759 
Q 947 2416 947 1791 
Q 947 1169 1205 825 
Q 1463 481 1925 481 
Q 2391 481 2648 825 
Q 2906 1169 2906 1791 
z
M 3481 434 
Q 3481 -459 3084 -895 
Q 2688 -1331 1869 -1331 
Q 1566 -1331 1297 -1286 
Q 1028 -1241 775 -1147 
L 775 -588 
Q 1028 -725 1275 -790 
Q 1522 -856 1778 -856 
Q 2344 -856 2625 -561 
Q 2906 -266 2906 331 
L 2906 616 
Q 2728 306 2450 153 
Q 2172 0 1784 0 
Q 1141 0 747 490 
Q 353 981 353 1791 
Q 353 2603 747 3093 
Q 1141 3584 1784 3584 
Q 2172 3584 2450 3431 
Q 2728 3278 2906 2969 
L 2906 3500 
L 3481 3500 
L 3481 434 
z
" transform="scale(0.015625)"/>
       <path id="DejaVuSans-65" d="M 3597 1894 
L 3597 1613 
L 953 1613 
Q 991 1019 1311 708 
Q 1631 397 2203 397 
Q 2534 397 2845 478 
Q 3156 559 3463 722 
L 3463 178 
Q 3153 47 2828 -22 
Q 2503 -91 2169 -91 
Q 1331 -91 842 396 
Q 353 884 353 1716 
Q 353 2575 817 3079 
Q 1281 3584 2069 3584 
Q 2775 3584 3186 3129 
Q 3597 2675 3597 1894 
z
M 3022 2063 
Q 3016 2534 2758 2815 
Q 2500 3097 2075 3097 
Q 1594 3097 1305 2825 
Q 1016 2553 972 2059 
L 3022 2063 
z
" transform="scale(0.015625)"/>
       <path id="DejaVuSans-20" transform="scale(0.015625)"/>
       <path id="DejaVuSans-2f" d="M 1625 4666 
L 2156 4666 
L 531 -594 
L 0 -594 
L 1625 4666 
z
" transform="scale(0.015625)"/>
      </defs>
      <use xlink:href="#DejaVuSans-56"/>
      <use xlink:href="#DejaVuSans-6f" x="60.658203"/>
      <use xlink:href="#DejaVuSans-6c" x="121.839844"/>
      <use xlink:href="#DejaVuSans-61" x="149.623047"/>
      <use xlink:href="#DejaVuSans-67" x="210.902344"/>
      <use xlink:href="#DejaVuSans-65" x="274.378906"/>
      <use xlink:href="#DejaVuSans-20" x="335.902344"/>
      <use xlink:href="#DejaVuSans-2f" x="367.689453"/>
      <use xlink:href="#DejaVuSans-20" x="401.380859"/>
      <use xlink:href="#DejaVuSans-56" x="433.167969"/>
     </g>
    </g>
   </g>
   <g id="matplotlib.axis_2">
    <g id="ytick_1">
     <g id="line2d_6">
      <defs>
       <path id="m01d3f7c1ed" d="M 0 0 
L -3.5 0 
" style="stroke: #000000; stroke-width: 0.8"/>
      </defs>
      <g>
       <use xlink:href="#m01d3f7c1ed" x="57.6" y="282.581522" style="stroke: #000000; stroke-width: 0.8"/>
      </g>
     </g>
     <g id="text_7">
      <!-- −2 -->
      <g transform="translate(35.857813 286.38074) scale(0.1 -0.1)">
       <defs>
        <path id="DejaVuSans-32" d="M 1228 531 
L 3431 531 
L 3431 0 
L 469 0 
L 469 531 
Q 828 903 1448 1529 
Q 2069 2156 2228 2338 
Q 2531 2678 2651 2914 
Q 2772 3150 2772 3378 
Q 2772 3750 2511 3984 
Q 2250 4219 1831 4219 
Q 1534 4219 1204 4116 
Q 875 4013 500 3803 
L 500 4441 
Q 881 4594 1212 4672 
Q 1544 4750 1819 4750 
Q 2544 4750 2975 4387 
Q 3406 4025 3406 3419 
Q 3406 3131 3298 2873 
Q 3191 2616 2906 2266 
Q 2828 2175 2409 1742 
Q 1991 1309 1228 531 
z
" transform="scale(0.015625)"/>
       </defs>
       <use xlink:href="#DejaVuSans-2212"/>
       <use xlink:href="#DejaVuSans-32" x="83.789062"/>
      </g>
     </g>
    </g>
    <g id="ytick_2">
     <g id="line2d_7">
      <g>
       <use xlink:href="#m01d3f7c1ed" x="57.6" y="250.956417" style="stroke: #000000; stroke-width: 0.8"/>
      </g>
     </g>
     <g id="text_8">
      <!-- −1 -->
      <g transform="translate(35.857813 254.755636) scale(0.1 -0.1)">
       <use xlink:href="#DejaVuSans-2212"/>
       <use xlink:href="#DejaVuSans-31" x="83.789062"/>
      </g>
     </g>
    </g>
    <g id="ytick_3">
     <g id="line2d_8">
      <g>
       <use xlink:href="#m01d3f7c1ed" x="57.6" y="219.331313" style="stroke: #000000; stroke-width: 0.8"/>
      </g>
     </g>
     <g id="text_9">
      <!-- 0 -->
      <g transform="translate(44.2375 223.130531) scale(0.1 -0.1)">
       <use xlink:href="#DejaVuSans-30"/>
      </g>
     </g>
    </g>
    <g id="ytick_4">
     <g id="line2d_9">
      <g>
       <use xlink:href="#m01d3f7c1ed" x="57.6" y="187.706208" style="stroke: #000000; stroke-width: 0.8"/>
      </g>
     </g>
     <g id="text_10">
      <!-- 1 -->
      <g transform="translate(44.2375 191.505427) scale(0.1 -0.1)">
       <use xlink:href="#DejaVuSans-31"/>
      </g>
     </g>
    </g>
    <g id="ytick_5">
     <g id="line2d_10">
      <g>
       <use xlink:href="#m01d3f7c1ed" x="57.6" y="156.081103" style="stroke: #000000; stroke-width: 0.8"/>
      </g>
     </g>
     <g id="text_11">
      <!-- 2 -->
      <g transform="translate(44.2375 159.880322) scale(0.1 -0.1)">
       <use xlink:href="#DejaVuSans-32"/>
      </g>
     </g>
    </g>
    <g id="ytick_6">
     <g id="line2d_11">
      <g>
       <use xlink:href="#m01d3f7c1ed" x="57.6" y="124.455999" style="stroke: #000000; stroke-width: 0.8"/>
      </g>
     </g>
     <g id="text_12">
      <!-- 3 -->
      <g transform="translate(44.2375 128.255218) scale(0.1 -0.1)">
       <defs>
        <path id="DejaVuSans-33" d="M 2597 2516 
Q 3050 2419 3304 2112 
Q 3559 1806 3559 1356 
Q 3559 666 3084 287 
Q 2609 -91 1734 -91 
Q 1441 -91 1130 -33 
Q 819 25 488 141 
L 488 750 
Q 750 597 1062 519 
Q 1375 441 1716 441 
Q 2309 441 2620 675 
Q 2931 909 2931 1356 
Q 2931 1769 2642 2001 
Q 2353 2234 1838 2234 
L 1294 2234 
L 1294 2753 
L 1863 2753 
Q 2328 2753 2575 2939 
Q 2822 3125 2822 3475 
Q 2822 3834 2567 4026 
Q 2313 4219 1838 4219 
Q 1578 4219 1281 4162 
Q 984 4106 628 3988 
L 628 4550 
Q 988 4650 1302 4700 
Q 1616 4750 1894 4750 
Q 2613 4750 3031 4423 
Q 3450 4097 3450 3541 
Q 3450 3153 3228 2886 
Q 3006 2619 2597 2516 
z
" transform="scale(0.015625)"/>
       </defs>
       <use xlink:href="#DejaVuSans-33"/>
      </g>
     </g>
    </g>
    <g id="ytick_7">
     <g id="line2d_12">
      <g>
       <use xlink:href="#m01d3f7c1ed" x="57.6" y="92.830894" style="stroke: #000000; stroke-width: 0.8"/>
      </g>
     </g>
     <g id="text_13">
      <!-- 4 -->
      <g transform="translate(44.2375 96.630113) scale(0.1 -0.1)">
       <defs>
        <path id="DejaVuSans-34" d="M 2419 4116 
L 825 1625 
L 2419 1625 
L 2419 4116 
z
M 2253 4666 
L 3047 4666 
L 3047 1625 
L 3713 1625 
L 3713 1100 
L 3047 1100 
L 3047 0 
L 2419 0 
L 2419 1100 
L 313 1100 
L 313 1709 
L 2253 4666 
z
" transform="scale(0.015625)"/>
       </defs>
       <use xlink:href="#DejaVuSans-34"/>
      </g>
     </g>
    </g>
    <g id="ytick_8">
     <g id="line2d_13">
      <g>
       <use xlink:href="#m01d3f7c1ed" x="57.6" y="61.20579" style="stroke: #000000; stroke-width: 0.8"/>
      </g>
     </g>
     <g id="text_14">
      <!-- 5 -->
      <g transform="translate(44.2375 65.005009) scale(0.1 -0.1)">
       <use xlink:href="#DejaVuSans-35"/>
      </g>
     </g>
    </g>
    <g id="text_15">
     <!-- Current / μA -->
     <g transform="translate(29.778125 204.768625) rotate(-90) scale(0.1 -0.1)">
      <defs>
       <path id="DejaVuSans-43" d="M 4122 4306 
L 4122 3641 
Q 3803 3938 3442 4084 
Q 3081 4231 2675 4231 
Q 1875 4231 1450 3742 
Q 1025 3253 1025 2328 
Q 1025 1406 1450 917 
Q 1875 428 2675 428 
Q 3081 428 3442 575 
Q 3803 722 4122 1019 
L 4122 359 
Q 3791 134 3420 21 
Q 3050 -91 2638 -91 
Q 1578 -91 968 557 
Q 359 1206 359 2328 
Q 359 3453 968 4101 
Q 1578 4750 2638 4750 
Q 3056 4750 3426 4639 
Q 3797 4528 4122 4306 
z
" transform="scale(0.015625)"/>
       <path id="DejaVuSans-75" d="M 544 1381 
L 544 3500 
L 1119 3500 
L 1119 1403 
Q 1119 906 1312 657 
Q 1506 409 1894 409 
Q 2359 409 2629 706 
Q 2900 1003 2900 1516 
L 2900 3500 
L 3475 3500 
L 3475 0 
L 2900 0 
L 2900 538 
Q 2691 219 2414 64 
Q 2138 -91 1772 -91 
Q 1169 -91 856 284 
Q 544 659 544 1381 
z
M 1991 3584 
L 1991 3584 
z
" transform="scale(0.015625)"/>
       <path id="DejaVuSans-72" d="M 2631 2963 
Q 2534 3019 2420 3045 
Q 2306 3072 2169 3072 
Q 1681 3072 1420 2755 
Q 1159 2438 1159 1844 
L 1159 0 
L 581 0 
L 581 3500 
L 1159 3500 
L 1159 2956 
Q 1341 3275 1631 3429 
Q 1922 3584 2338 3584 
Q 2397 3584 2469 3576 
Q 2541 3569 2628 3553 
L 2631 2963 
z
" transform="scale(0.015625)"/>
       <path id="DejaVuSans-6e" d="M 3513 2113 
L 3513 0 
L 2938 0 
L 2938 2094 
Q 2938 2591 2744 2837 
Q 2550 3084 2163 3084 
Q 1697 3084 1428 2787 
Q 1159 2491 1159 1978 
L 1159 0 
L 581 0 
L 581 3500 
L 1159 3500 
L 1159 2956 
Q 1366 3272 1645 3428 
Q 1925 3584 2291 3584 
Q 2894 3584 3203 3211 
Q 3513 2838 3513 2113 
z
" transform="scale(0.015625)"/>
       <path id="DejaVuSans-74" d="M 1172 4494 
L 1172 3500 
L 2356 3500 
L 2356 3053 
L 1172 3053 
L 1172 1153 
Q 1172 725 1289 603 
Q 1406 481 1766 481 
L 2356 481 
L 2356 0 
L 1766 0 
Q 1100 0 847 248 
Q 594 497 594 1153 
L 594 3053 
L 172 3053 
L 172 3500 
L 594 3500 
L 594 4494 
L 1172 4494 
z
" transform="scale(0.015625)"/>
       <path id="DejaVuSans-3bc" d="M 544 -1331 
L 544 3500 
L 1119 3500 
L 1119 1325 
Q 1119 872 1334 640 
Q 1550 409 1972 409 
Q 2434 409 2667 671 
Q 2900 934 2900 1459 
L 2900 3500 
L 3475 3500 
L 3475 806 
Q 3475 619 3529 530 
Q 3584 441 3700 441 
Q 3728 441 3778 458 
Q 3828 475 3916 513 
L 3916 50 
Q 3788 -22 3673 -56 
Q 3559 -91 3450 -91 
Q 3234 -91 3106 31 
Q 2978 153 2931 403 
Q 2775 156 2548 32 
Q 2322 -91 2016 -91 
Q 1697 -91 1473 31 
Q 1250 153 1119 397 
L 1119 -1331 
L 544 -1331 
z
" transform="scale(0.015625)"/>
       <path id="DejaVuSans-41" d="M 2188 4044 
L 1331 1722 
L 3047 1722 
L 2188 4044 
z
M 1831 4666 
L 2547 4666 
L 4325 0 
L 3669 0 
L 3244 1197 
L 1141 1197 
L 716 0 
L 50 0 
L 1831 4666 
z
" transform="scale(0.015625)"/>
      </defs>
      <use xlink:href="#DejaVuSans-43"/>
      <use xlink:href="#DejaVuSans-75" x="69.824219"/>
      <use xlink:href="#DejaVuSans-72" x="133.203125"/>
      <use xlink:href="#DejaVuSans-72" x="172.566406"/>
      <use xlink:href="#DejaVuSans-65" x="211.429688"/>
      <use xlink:href="#DejaVuSans-6e" x="272.953125"/>
      <use xlink:href="#DejaVuSans-74" x="336.332031"/>
      <use xlink:href="#DejaVuSans-20" x="375.541016"/>
      <use xlink:href="#DejaVuSans-2f" x="407.328125"/>
      <use xlink:href="#DejaVuSans-20" x="441.019531"/>
      <use xlink:href="#DejaVuSans-3bc" x="472.806641"/>
      <use xlink:href="#DejaVuSans-41" x="536.429688"/>
     </g>
    </g>
   </g>
   <g id="line2d_14">
    <path d="M 73.832727 294.243649 
L 73.843552 287.265854 
L 74.600871 278.443677 
L 75.68381 270.400931 
L 76.937432 263.350231 
L 78.20542 257.255375 
L 79.525907 251.815415 
L 80.828633 247.075386 
L 82.142674 242.962882 
L 83.487172 239.327989 
L 85.927008 234.360289 
L 87.171281 231.563299 
L 89.772156 226.96261 
L 92.41003 223.234533 
L 95.071866 219.881803 
L 97.755991 216.844825 
L 100.428405 214.529925 
L 104.395328 211.406482 
L 105.738645 210.249591 
L 106.952511 210.151307 
L 109.413996 208.061465 
L 112.017085 206.223304 
L 121.338185 201.426793 
L 123.992346 200.283712 
L 126.651082 199.135157 
L 127.862094 199.397662 
L 132.889815 196.517566 
L 135.525378 195.433331 
L 138.169698 194.230658 
L 143.546557 191.843972 
L 144.845592 191.469622 
L 148.838641 189.721783 
L 150.048129 190.132088 
L 151.242314 189.613173 
L 155.090118 187.471576 
L 157.72076 186.338572 
L 160.387615 185.224603 
L 163.067262 184.241638 
L 165.728606 183.297986 
L 169.69976 181.952614 
L 170.930404 182.385313 
L 172.132265 181.983468 
L 173.415113 181.283412 
L 176.032814 180.24185 
L 184.006366 177.832397 
L 190.670157 176.097373 
L 191.873248 176.678119 
L 193.063497 176.37319 
L 195.632439 175.27838 
L 196.925029 174.963125 
L 198.265049 174.50206 
L 207.5738 172.272132 
L 210.229683 171.626816 
L 212.888124 171.016086 
L 214.099431 171.508502 
L 215.27984 171.393547 
L 217.833677 170.294383 
L 219.157904 169.892414 
L 220.484443 169.307561 
L 223.129206 168.467668 
L 228.48171 166.638838 
L 232.46054 165.042282 
L 235.013295 163.295314 
L 236.260668 159.985007 
L 237.611512 153.720082 
L 238.947351 146.978791 
L 240.261934 142.018556 
L 241.597969 139.919631 
L 242.908123 139.339506 
L 244.248242 139.028108 
L 245.577438 138.949356 
L 246.916524 139.255529 
L 248.239914 139.854316 
L 250.883299 141.580881 
L 252.203245 142.265386 
L 253.55222 142.820877 
L 254.871182 143.685777 
L 256.238952 144.173465 
L 257.46384 145.565988 
L 258.656451 146.285079 
L 261.203892 146.320163 
L 262.517933 146.528426 
L 263.841471 146.873664 
L 265.147591 147.439979 
L 267.816168 148.093008 
L 270.509493 148.534291 
L 273.161882 148.789706 
L 275.821701 149.184086 
L 277.163394 149.286102 
L 278.395908 150.156103 
L 279.63408 150.492384 
L 283.530349 150.520127 
L 286.193316 150.512289 
L 288.847575 150.602735 
L 290.202356 150.546751 
L 291.538785 150.605721 
L 294.203475 150.535803 
L 298.153128 150.722294 
L 299.385592 151.661218 
L 300.587994 152.018275 
L 304.490413 152.034199 
L 305.807555 152.082719 
L 307.131584 151.984311 
L 311.102886 152.115564 
L 315.103857 151.656739 
L 317.758559 151.478832 
L 320.46384 151.059819 
L 321.729811 151.699163 
L 322.915731 151.714216 
L 328.106114 150.246425 
L 336.072532 148.31309 
L 340.063859 147.130695 
L 341.391972 146.609292 
L 342.631276 147.051446 
L 343.795792 146.955775 
L 346.378216 145.628567 
L 349.006595 144.481505 
L 353.004712 142.491439 
L 359.673029 139.230274 
L 363.68079 137.58159 
L 364.910794 137.86425 
L 366.108375 137.686095 
L 367.363226 136.956429 
L 369.982404 135.035162 
L 372.625543 132.620609 
L 373.971812 131.259188 
L 376.649393 128.084364 
L 377.969486 126.215474 
L 380.619514 121.779752 
L 381.954073 119.086893 
L 383.272297 116.084377 
L 384.61276 112.578373 
L 385.835532 109.712584 
L 387.044527 106.244152 
L 388.283437 101.985342 
L 389.59674 97.01702 
L 390.920672 91.5686 
L 393.546098 79.032779 
L 396.224171 64.898037 
L 397.581658 57.072262 
L 398.487273 53.568 
L 398.470938 58.694447 
L 397.699448 69.64578 
L 396.584331 82.444231 
L 394.061933 107.5787 
L 392.779726 118.819038 
L 390.120054 138.800561 
L 388.81728 147.120121 
L 386.410213 160.187173 
L 385.129284 166.229031 
L 383.843337 171.563865 
L 382.505629 176.352165 
L 381.181796 180.520653 
L 378.529161 187.447813 
L 377.187369 190.370582 
L 375.85591 192.856671 
L 373.180297 197.07679 
L 370.543899 200.460126 
L 369.195809 201.980045 
L 367.881079 203.218051 
L 366.657323 203.742813 
L 365.479817 204.852677 
L 362.901428 207.671688 
L 360.238854 210.020925 
L 357.596994 211.788795 
L 354.928565 213.318294 
L 353.580426 213.998071 
L 348.240616 216.044619 
L 345.592655 216.673637 
L 344.385677 216.182217 
L 343.174911 216.524469 
L 341.903084 217.023727 
L 336.625219 218.484427 
L 333.97593 219.102995 
L 331.287722 219.617431 
L 328.625541 220.152271 
L 324.629441 220.947501 
L 323.456757 220.425724 
L 322.269116 220.201661 
L 320.992566 220.635853 
L 319.663321 221.208638 
L 314.364349 222.693473 
L 311.68047 223.254439 
L 305.058108 224.294011 
L 302.418314 224.695856 
L 301.180339 224.234045 
L 299.973558 224.313668 
L 297.395169 224.960725 
L 293.402956 225.808954 
L 292.0929 225.99221 
L 290.73374 226.309954 
L 288.060193 226.717273 
L 282.749019 227.655948 
L 281.43852 227.844927 
L 280.180864 227.279482 
L 278.967834 227.359851 
L 276.35333 228.170135 
L 260.390383 231.703136 
L 259.199396 231.202385 
L 257.995813 231.390369 
L 256.726595 231.991643 
L 252.756818 233.372099 
L 248.793733 234.496145 
L 243.445263 236.148686 
L 239.429089 237.340536 
L 238.064959 237.658404 
L 236.80814 236.605894 
L 235.594864 236.572054 
L 233.018689 237.850867 
L 230.392377 238.720991 
L 226.397458 239.705076 
L 222.388959 240.256835 
L 218.433648 240.654202 
L 217.092693 240.874283 
L 215.896687 240.171739 
L 214.704716 240.165394 
L 213.451291 240.628573 
L 212.132182 241.325146 
L 210.823454 242.285344 
L 209.490371 243.447211 
L 208.187843 245.81735 
L 206.847281 249.956477 
L 205.512968 254.877523 
L 204.152135 259.461293 
L 202.819397 262.13437 
L 200.154461 260.489667 
L 198.813457 260.730277 
L 197.495282 258.866487 
L 196.157968 253.867436 
L 194.849633 250.028137 
L 193.638178 247.190838 
L 192.452456 246.030589 
L 191.169953 246.075376 
L 189.874263 246.491529 
L 188.547527 247.098899 
L 185.928153 247.845485 
L 183.229956 249.399742 
L 181.909961 249.878472 
L 180.560691 250.693483 
L 179.234693 251.994938 
L 177.90535 252.504398 
L 176.581861 252.070829 
L 175.241988 252.143484 
L 173.923568 252.531768 
L 172.689873 252.22659 
L 171.511039 252.119722 
L 170.226174 253.037869 
L 168.923301 254.20322 
L 167.600157 254.521336 
L 166.291479 255.058664 
L 163.62551 255.814581 
L 162.269498 256.453551 
L 160.942025 256.874929 
L 159.598363 257.507803 
L 156.933575 258.312489 
L 155.624749 258.963652 
L 154.283302 260.651649 
L 152.971572 263.433337 
L 151.783291 264.150686 
L 150.640965 264.203934 
L 149.393494 265.497925 
L 148.110843 266.465338 
L 146.788536 266.653571 
L 145.484433 265.089361 
L 144.147119 264.324487 
L 142.821121 264.002265 
L 141.479427 264.005749 
L 138.778722 264.815783 
L 136.122741 265.812807 
L 134.813865 266.094596 
L 133.478864 266.668127 
L 132.162559 266.95763 
L 130.832969 267.382739 
L 129.648034 267.241409 
L 128.451536 267.229715 
L 127.177545 267.626708 
L 124.551872 268.874418 
L 121.90027 269.799656 
L 119.223821 270.783243 
L 116.549882 271.361129 
L 111.239642 273.192571 
L 109.953055 273.601383 
L 108.732645 273.370602 
L 107.546873 273.533082 
L 106.274899 274.012683 
L 102.334742 275.961445 
L 95.654124 279.436471 
L 91.657483 281.861226 
L 89.031122 283.677988 
L 87.719491 284.578967 
L 86.507003 284.657096 
L 85.287429 285.250409 
L 82.704415 287.537566 
L 74.71994 295.488 
L 74.71994 295.488 
" clip-path="url(#p754e36043f)" style="fill: none; stroke: #477a7b; stroke-width: 1.5; stroke-linecap: square"/>
   </g>
   <g id="patch_3">
    <path d="M 57.6 307.584 
L 57.6 41.472 
" style="fill: none; stroke: #000000; stroke-width: 0.8; stroke-linejoin: miter; stroke-linecap: square"/>
   </g>
   <g id="patch_4">
    <path d="M 414.72 307.584 
L 414.72 41.472 
" style="fill: none; stroke: #000000; stroke-width: 0.8; stroke-linejoin: miter; stroke-linecap: square"/>
   </g>
   <g id="patch_5">
    <path d="M 57.6 307.584 
L 414.72 307.584 
" style="fill: none; stroke: #000000; stroke-width: 0.8; stroke-linejoin: miter; stroke-linecap: square"/>
   </g>
   <g id="patch_6">
    <path d="M 57.6 41.472 
L 414.72 41.472 
" style="fill: none; stroke: #000000; stroke-width: 0.8; stroke-linejoin: miter; stroke-linecap: square"/>
   </g>
  </g>
 </g>
 <defs>
  <clipPath id="p754e36043f">
   <rect x="57.6" y="41.472" width="357.12" height="266.112"/>
  </clipPath>
 </defs>
</svg>
